<svg width="142" height="43" viewBox="0 0 142 43" fill="none" xmlns="http://www.w3.org/2000/svg">
<path d="M100.903 10.881C104.479 10.881 107.696 11.2384 111.272 11.596C110.199 9.09329 110.557 6.23315 111.272 3.73047C106.981 3.73047 103.048 3.73047 99.1154 3.73047C97.6853 3.73047 96.2552 3.73043 95.1826 4.803C90.5346 9.45084 97.6853 10.5235 100.903 10.881Z" fill="white"/>
<path d="M120.566 8.74004C120.566 9.45509 120.566 10.5276 120.566 11.6002C127.717 11.9577 139.159 11.9577 137.729 6.23731C137.013 2.30453 129.505 3.0196 126.645 3.0196H120.209C120.209 3.37713 120.566 3.73461 120.566 4.09214C120.566 5.87976 120.566 7.30993 120.566 8.74004Z" fill="white"/>
<path d="M11.1616 10.881C14.737 10.881 17.9548 11.2384 21.5302 11.596C20.4576 9.09329 20.8151 6.23315 21.5302 3.73047C17.5973 3.73047 13.3068 3.73047 9.37387 3.73047C7.94371 3.73047 6.51355 3.73043 5.79847 4.803C1.15046 9.45084 8.30125 10.5235 11.1616 10.881Z" fill="white"/>
<path d="M31.1818 8.74004C31.1818 9.45509 31.1818 10.5276 31.1818 11.6002C38.3326 11.9577 49.7738 11.9577 48.3436 6.23731C47.6286 2.30453 40.1202 3.0196 37.2599 3.0196H30.8242C30.8242 3.37713 31.1818 3.73461 31.1818 4.09214C31.1818 5.87976 31.1818 7.30993 31.1818 8.74004Z" fill="white"/>
<path d="M104.834 15.1749C113.057 15.1749 121.638 15.5324 129.862 15.1749C135.94 14.8174 145.951 10.5271 139.158 3.37661C135.582 -0.556173 129.504 0.1589 124.856 0.1589C119.136 0.1589 113.772 0.1589 108.052 0.1589C105.907 0.1589 101.616 -0.198625 98.0407 0.1589C93.7502 0.516426 89.8174 1.94644 89.4599 5.87922C88.3872 13.7448 99.4709 14.8174 104.834 15.1749ZM120.566 4.44914C120.566 4.09162 120.566 3.73414 120.208 3.37661H126.644C129.504 3.37661 137.013 2.66154 137.728 6.59432C138.8 12.3147 127.359 12.3147 120.566 11.9572C120.566 10.8846 120.566 9.81209 120.566 9.09704C120.566 7.30941 120.566 5.87925 120.566 4.44914ZM95.1804 4.0916C95.8955 3.01902 97.6831 3.01906 99.1133 3.01906C103.046 3.01906 107.337 3.01906 111.27 3.01906C110.555 5.52174 110.197 8.73952 111.27 10.8847C107.694 10.8847 104.476 10.5271 100.901 10.1696C97.6831 10.5271 90.5324 9.45448 95.1804 4.0916ZM15.4491 15.1749C23.6725 15.1749 32.2534 15.5324 40.4769 15.1749C46.555 14.8174 56.5661 10.5271 49.7728 3.37661C46.1974 -0.556173 40.1192 0.1589 35.4712 0.1589C29.7506 0.1589 24.3875 0.1589 18.6669 0.1589C16.5217 0.1589 12.2311 -0.198625 8.65573 0.1589C4.36525 0.516426 0.432333 1.94644 0.0747929 5.87922C-0.997827 13.7448 9.72843 14.8174 15.4491 15.1749ZM31.1808 4.44914C31.1808 4.09162 31.1808 3.73414 30.8232 3.37661H37.2589C40.1192 3.37661 47.6276 2.66154 48.3427 6.59432C49.4153 12.3147 37.9741 12.3147 31.1808 11.9572C31.1808 10.8846 31.1808 9.81209 31.1808 9.09704C31.1808 7.30941 31.1808 5.87925 31.1808 4.44914ZM5.79545 4.0916C6.51053 3.01902 8.29823 3.01906 9.37085 3.01906C13.3038 3.01906 17.5942 3.01906 21.5272 3.01906C20.8121 5.52174 20.4546 8.73952 21.5272 10.8847C17.9518 10.8847 14.7339 10.5271 11.1585 10.1696C8.29823 10.5271 1.14743 9.45448 5.79545 4.0916ZM58.7113 42.3469H81.5939C84.8118 42.3469 84.8118 37.3415 81.5939 37.3415H58.7113C55.4934 37.3415 55.4934 42.3469 58.7113 42.3469Z" fill="#0D0D0D"/>
</svg>
